<?xml version="1.0" encoding="UTF-8"?>
<!DOCTYPE svg  PUBLIC '-//W3C//DTD SVG 1.1//EN'  'http://www.w3.org/Graphics/SVG/1.1/DTD/svg11.dtd'>
<svg enable-background="new 0 0 37.2 36.85" version="1.1" viewBox="0 0 37.2 36.85" xml:space="preserve" xmlns="http://www.w3.org/2000/svg" xmlns:xlink="http://www.w3.org/1999/xlink">
<symbol id="d" viewBox="0 -30.7 34.75 30.7">
		<path d="m30.1 0c3.1-3.467 4.65-7.55 4.65-12.25 0-5.067-1.8-9.417-5.4-13.05-3.6-3.6-7.934-5.4-13-5.4-3.5 0-6.733 0.917-9.7 2.75-2.867 1.8-5.083 4.2-6.65 7.2 1.7-1.933 3.733-3.45 6.1-4.55 2.433-1.133 5-1.7 7.7-1.7 5.1 0 9.45 1.8 13.05 5.4 3.566 3.6 5.35 7.934 5.35 13 0 3.1-0.7 5.967-2.1 8.6z" clip-rule="evenodd" fill="#54371E" fill-rule="evenodd"/>
</symbol>
<radialGradient id="c" cx="13.19" cy="-.0547" r="30.873" gradientTransform="matrix(.6907 .7231 .7231 -.6907 .0791 -.0753)" gradientUnits="userSpaceOnUse">
	<stop stop-color="#F7BC79" offset="0"/>
	<stop stop-color="#DAA267" offset=".3137"/>
	<stop stop-color="#9C6B41" offset="1"/>
</radialGradient>
<path d="m37.2 18.4c0 5.067-1.8 9.417-5.4 13.05-3.6 3.6-7.934 5.399-13 5.399-5.1 0-9.45-1.8-13.05-5.399-3.6-3.634-5.4-7.983-5.4-13.05 0-5.1 1.8-9.433 5.4-13 3.6-3.6 7.95-5.4 13.05-5.4 5.066 0 9.4 1.8 13 5.4 3.6 3.567 5.4 7.9 5.4 13z" clip-rule="evenodd" fill="url(#c)" fill-rule="evenodd"/>
<path d="m9.2 6.6c2.433 0.1 2.75 1.283 0.95 3.55-1.967 2.433-3.317 3.25-4.05 2.45-0.667-0.7-0.617-1.867 0.15-3.5 0.8-1.7 1.783-2.533 2.95-2.5z" clip-rule="evenodd" fill="#FAD4AD" fill-rule="evenodd"/>
<path d="m5.15 14.4c0.633 0.133 0.833 0.617 0.6 1.45s-0.583 1.083-1.05 0.75c-0.4-0.267-0.534-0.717-0.4-1.35 0.167-0.633 0.45-0.917 0.85-0.85z" clip-rule="evenodd" fill="#FAD4AD" fill-rule="evenodd"/>
<use transform="matrix(1 0 0 -1 2.4502 6.1499)" y="-30.7" width="34.75" height="30.7" enable-background="new" opacity=".2188" xlink:href="#d"/>
</svg>
