<?xml version="1.0" encoding="UTF-8"?>
<svg viewBox="0 0 744.09448819 1052.3622047" xmlns="http://www.w3.org/2000/svg">
 <defs>
  <linearGradient id="a" x2="0" y1="393.79" y2="670.93" gradientUnits="userSpaceOnUse">
   <stop stop-color="#fff" offset="0"/>
   <stop stop-color="#fff" stop-opacity="0" offset="1"/>
  </linearGradient>
  <radialGradient id="j" cx="352.27" cy="800.02" r="273.36" gradientTransform="matrix(1.9787 -.02922 .01817 1.2307 -364.42 -157.61)" gradientUnits="userSpaceOnUse">
   <stop stop-color="#c8edf8" offset="0"/>
   <stop stop-color="#0cf" offset="1"/>
  </radialGradient>
  <radialGradient id="i" cx="352.27" cy="800.02" r="273.36" gradientTransform="matrix(1.9787 -.02922 .01817 1.2307 -364.42 -157.61)" gradientUnits="userSpaceOnUse">
   <stop stop-color="#f4bfc2" offset="0"/>
   <stop stop-color="#ff000a" offset="1"/>
  </radialGradient>
  <radialGradient id="h" cx="352.27" cy="800.02" r="273.36" gradientTransform="matrix(1.9787 -.02922 .01817 1.2307 -364.42 -157.61)" gradientUnits="userSpaceOnUse">
   <stop stop-color="#e0c8f8" offset="0"/>
   <stop stop-color="#8000ff" offset="1"/>
  </radialGradient>
  <radialGradient id="g" cx="352.27" cy="800.02" r="273.36" gradientTransform="matrix(1.9787 -.02922 .01817 1.2307 -364.42 -157.61)" gradientUnits="userSpaceOnUse">
   <stop stop-color="#fdffeb" offset="0"/>
   <stop stop-color="#f1d005" offset="1"/>
  </radialGradient>
  <radialGradient id="f" cx="352.27" cy="800.02" r="273.36" gradientTransform="matrix(1.9787 -.02922 .01817 1.2307 -364.42 -157.61)" gradientUnits="userSpaceOnUse">
   <stop stop-color="#caffd0" offset="0"/>
   <stop stop-color="#03c713" offset="1"/>
  </radialGradient>
  <radialGradient id="e" cx="352.27" cy="800.02" r="273.36" gradientTransform="matrix(1.9787 -.02922 .01817 1.2307 -364.42 -157.61)" gradientUnits="userSpaceOnUse">
   <stop stop-color="#ecf8c8" offset="0"/>
   <stop stop-color="#99c008" offset="1"/>
  </radialGradient>
  <radialGradient id="d" cx="352.27" cy="800.02" r="273.36" gradientTransform="matrix(1.9787 -.02922 .01817 1.2307 -364.42 -157.61)" gradientUnits="userSpaceOnUse">
   <stop stop-color="#f8efc8" offset="0"/>
   <stop stop-color="#ff8f00" offset="1"/>
  </radialGradient>
  <radialGradient id="c" cx="352.27" cy="800.02" r="273.36" gradientTransform="matrix(1.9787 -.02922 .01817 1.2307 -364.42 -157.61)" gradientUnits="userSpaceOnUse">
   <stop stop-color="#a9aefa" offset="0"/>
   <stop stop-color="#1a08c0" offset="1"/>
  </radialGradient>
  <radialGradient id="b" cx="352.27" cy="800.02" r="273.36" gradientTransform="matrix(1.9787 -.02922 .01817 1.2307 -364.42 -157.61)" gradientUnits="userSpaceOnUse">
   <stop stop-color="#f8c8f5" offset="0"/>
   <stop stop-color="#f0d" offset="1"/>
  </radialGradient>
 </defs>
 <g transform="matrix(.30743 0 0 .30743 264.08 116.76)">
  <path d="m628.57 608.08c0 150.69-122.16 272.86-272.86 272.86s-272.86-122.16-272.86-272.86 122.16-272.86 272.86-272.86 272.86 122.16 272.86 272.86z" fill="url(#j)" stroke="#0cf" stroke-width="11"/>
  <path transform="matrix(1.2492 0 0 1.1188 -124.35 -76.688)" d="m548.57 525.22c0 79.687-73.553 144.29-164.29 144.29s-164.29-64.599-164.29-144.29 73.553-144.29 164.29-144.29 164.29 64.599 164.29 144.29z" fill="url(#a)" opacity=".9"/>
 </g>
 <path transform="matrix(.30743 0 0 .30743 68.536 116.76)" d="m628.57 608.08c0 150.69-122.16 272.86-272.86 272.86s-272.86-122.16-272.86-272.86 122.16-272.86 272.86-272.86 272.86 122.16 272.86 272.86z" fill="url(#i)" stroke="#f00" stroke-width="11"/>
 <path transform="matrix(.38406 0 0 .34396 30.306 93.185)" d="m548.57 525.22c0 79.687-73.553 144.29-164.29 144.29s-164.29-64.599-164.29-144.29 73.553-144.29 164.29-144.29 164.29 64.599 164.29 144.29z" fill="url(#a)" opacity=".9"/>
 <path transform="matrix(.30743 0 0 .30743 264.08 312.58)" d="m628.57 608.08c0 150.69-122.16 272.86-272.86 272.86s-272.86-122.16-272.86-272.86 122.16-272.86 272.86-272.86 272.86 122.16 272.86 272.86z" fill="url(#h)" stroke="#7f2aff" stroke-width="11"/>
 <path transform="matrix(.38406 0 0 .34396 225.85 289)" d="m548.57 525.22c0 79.687-73.553 144.29-164.29 144.29s-164.29-64.599-164.29-144.29 73.553-144.29 164.29-144.29 164.29 64.599 164.29 144.29z" fill="url(#a)" opacity=".9"/>
 <path transform="matrix(.30743 0 0 .30743 459.62 312.58)" d="m628.57 608.08c0 150.69-122.16 272.86-272.86 272.86s-272.86-122.16-272.86-272.86 122.16-272.86 272.86-272.86 272.86 122.16 272.86 272.86z" fill="url(#g)" stroke="#fc0" stroke-width="11"/>
 <path transform="matrix(.38406 0 0 .34396 421.39 289)" d="m548.57 525.22c0 79.687-73.553 144.29-164.29 144.29s-164.29-64.599-164.29-144.29 73.553-144.29 164.29-144.29 164.29 64.599 164.29 144.29z" fill="url(#a)" opacity=".9"/>
 <path transform="matrix(.30743 0 0 .30743 459.62 116.76)" d="m628.57 608.08c0 150.69-122.16 272.86-272.86 272.86s-272.86-122.16-272.86-272.86 122.16-272.86 272.86-272.86 272.86 122.16 272.86 272.86z" fill="url(#f)" stroke="#00d400" stroke-width="11"/>
 <path transform="matrix(.38406 0 0 .34396 421.39 93.185)" d="m548.57 525.22c0 79.687-73.553 144.29-164.29 144.29s-164.29-64.599-164.29-144.29 73.553-144.29 164.29-144.29 164.29 64.599 164.29 144.29z" fill="url(#a)" opacity=".9"/>
 <path transform="matrix(.30743 0 0 .30743 68.536 312.58)" d="m628.57 608.08c0 150.69-122.16 272.86-272.86 272.86s-272.86-122.16-272.86-272.86 122.16-272.86 272.86-272.86 272.86 122.16 272.86 272.86z" fill="url(#e)" stroke="#abc837" stroke-width="11"/>
 <path transform="matrix(.38406 0 0 .34396 30.306 289)" d="m548.57 525.22c0 79.687-73.553 144.29-164.29 144.29s-164.29-64.599-164.29-144.29 73.553-144.29 164.29-144.29 164.29 64.599 164.29 144.29z" fill="url(#a)" opacity=".9"/>
 <path transform="matrix(.30743 0 0 .30743 68.536 508.39)" d="m628.57 608.08c0 150.69-122.16 272.86-272.86 272.86s-272.86-122.16-272.86-272.86 122.16-272.86 272.86-272.86 272.86 122.16 272.86 272.86z" fill="url(#d)" stroke="#f95" stroke-width="11"/>
 <path transform="matrix(.38406 0 0 .34396 30.306 484.82)" d="m548.57 525.22c0 79.687-73.553 144.29-164.29 144.29s-164.29-64.599-164.29-144.29 73.553-144.29 164.29-144.29 164.29 64.599 164.29 144.29z" fill="url(#a)" opacity=".9"/>
 <path transform="matrix(.30743 0 0 .30743 264.08 508.39)" d="m628.57 608.08c0 150.69-122.16 272.86-272.86 272.86s-272.86-122.16-272.86-272.86 122.16-272.86 272.86-272.86 272.86 122.16 272.86 272.86z" fill="url(#c)" stroke="#0000d4" stroke-width="11"/>
 <path transform="matrix(.38406 0 0 .34396 225.85 484.82)" d="m548.57 525.22c0 79.687-73.553 144.29-164.29 144.29s-164.29-64.599-164.29-144.29 73.553-144.29 164.29-144.29 164.29 64.599 164.29 144.29z" fill="url(#a)" opacity=".9"/>
 <path transform="matrix(.30743 0 0 .30743 459.62 508.39)" d="m628.57 608.08c0 150.69-122.16 272.86-272.86 272.86s-272.86-122.16-272.86-272.86 122.16-272.86 272.86-272.86 272.86 122.16 272.86 272.86z" fill="url(#b)" stroke="#f0c" stroke-width="11"/>
 <path transform="matrix(.38406 0 0 .34396 421.39 484.82)" d="m548.57 525.22c0 79.687-73.553 144.29-164.29 144.29s-164.29-64.599-164.29-144.29 73.553-144.29 164.29-144.29 164.29 64.599 164.29 144.29z" fill="url(#a)" opacity=".9"/>
</svg>
