<?xml version="1.0" encoding="UTF-8" standalone="no"?>
<!-- Created with Inkscape (http://www.inkscape.org/) -->

<svg
   xmlns:dc="http://purl.org/dc/elements/1.1/"
   xmlns:cc="http://creativecommons.org/ns#"
   xmlns:rdf="http://www.w3.org/1999/02/22-rdf-syntax-ns#"
   xmlns:svg="http://www.w3.org/2000/svg"
   xmlns="http://www.w3.org/2000/svg"
   xmlns:sodipodi="http://sodipodi.sourceforge.net/DTD/sodipodi-0.dtd"
   xmlns:inkscape="http://www.inkscape.org/namespaces/inkscape"
   id="svg7384"
   height="16"
   width="16"
   version="1.1"
   inkscape:version="0.91 r13725"
   sodipodi:docname="arc-menu-symbolic.svg">
  <defs
     id="defs14" />
  <sodipodi:namedview
     pagecolor="#ffffff"
     bordercolor="#666666"
     borderopacity="1"
     objecttolerance="10"
     gridtolerance="10"
     guidetolerance="10"
     inkscape:pageopacity="0"
     inkscape:pageshadow="2"
     inkscape:window-width="1846"
     inkscape:window-height="1001"
     id="namedview12"
     showgrid="false"
     inkscape:zoom="1.84375"
     inkscape:cx="-130.16486"
     inkscape:cy="-74.150491"
     inkscape:window-x="74"
     inkscape:window-y="34"
     inkscape:window-maximized="1"
     inkscape:current-layer="svg7384" />
  <metadata
     id="metadata90">
    <rdf:RDF>
      <cc:Work
         rdf:about="">
        <dc:format>image/svg+xml</dc:format>
        <dc:type
           rdf:resource="http://purl.org/dc/dcmitype/StillImage" />
        <dc:title>Gnome Symbolic Icon Theme</dc:title>
      </cc:Work>
    </rdf:RDF>
  </metadata>
  <title
     id="title9167">Gnome Symbolic Icon Theme</title>
  <g
     transform="matrix(0.13333333,0,0,0.13333333,1.3333335,1.3333335)"
     id="g4"
     style="color:#000000;clip-rule:nonzero;display:inline;overflow:visible;visibility:visible;opacity:1;isolation:auto;mix-blend-mode:normal;color-interpolation:sRGB;color-interpolation-filters:linearRGB;solid-color:#000000;solid-opacity:1;fill:#bebebe;fill-opacity:1;fill-rule:nonzero;stroke-width:6.42857122;stroke-linecap:butt;stroke-linejoin:miter;stroke-miterlimit:4;stroke-dasharray:none;stroke-dashoffset:0;stroke-opacity:1;color-rendering:auto;image-rendering:auto;shape-rendering:auto;text-rendering:auto;enable-background:accumulate">
    <path
       inkscape:connector-curvature="0"
       d="M 33.119,5 16.238,5 C 10.042,5 5,10.042 5,16.238 l 0,16.881 c 0,6.196 5.042,11.237 11.238,11.237 l 16.881,0 c 6.196,0 11.238,-5.041 11.238,-11.237 l 0,-16.881 C 44.357,10.042 39.315,5 33.119,5 Z m 8.054,28.119 c 0,4.44 -3.613,8.054 -8.054,8.054 l -16.881,0 c -4.441,0 -8.055,-3.613 -8.055,-8.054 l 0,-16.881 c 0,-4.442 3.613,-8.056 8.055,-8.056 l 16.881,0 c 4.44,0 8.054,3.613 8.054,8.056 l 0,16.881 z"
       id="path6"
       style="color:#000000;clip-rule:nonzero;display:inline;overflow:visible;visibility:visible;isolation:auto;mix-blend-mode:normal;color-interpolation:sRGB;color-interpolation-filters:linearRGB;solid-color:#000000;solid-opacity:1;fill:#bebebe;fill-opacity:1;fill-rule:nonzero;stroke-width:6.42857122;stroke-linecap:butt;stroke-linejoin:miter;stroke-miterlimit:4;stroke-dasharray:none;stroke-dashoffset:0;stroke-opacity:1;color-rendering:auto;image-rendering:auto;shape-rendering:auto;text-rendering:auto;enable-background:accumulate" />
    <path
       inkscape:connector-curvature="0"
       d="M 83.762,5 66.881,5 C 60.685,5 55.643,10.042 55.643,16.238 l 0,16.881 c 0,6.196 5.042,11.237 11.238,11.237 l 16.881,0 C 89.958,44.356 95,39.315 95,33.119 L 95,16.238 C 95,10.042 89.958,5 83.762,5 Z m 8.054,28.119 c 0,4.44 -3.612,8.054 -8.055,8.054 l -16.88,0 c -4.441,0 -8.054,-3.613 -8.054,-8.054 l 0,-16.881 c 0,-4.442 3.612,-8.056 8.054,-8.056 l 16.881,0 c 4.442,0 8.055,3.613 8.055,8.056 l 0,16.881 z"
       id="path8"
       style="color:#000000;clip-rule:nonzero;display:inline;overflow:visible;visibility:visible;isolation:auto;mix-blend-mode:normal;color-interpolation:sRGB;color-interpolation-filters:linearRGB;solid-color:#000000;solid-opacity:1;fill:#bebebe;fill-opacity:1;fill-rule:nonzero;stroke-width:6.42857122;stroke-linecap:butt;stroke-linejoin:miter;stroke-miterlimit:4;stroke-dasharray:none;stroke-dashoffset:0;stroke-opacity:1;color-rendering:auto;image-rendering:auto;shape-rendering:auto;text-rendering:auto;enable-background:accumulate" />
    <path
       inkscape:connector-curvature="0"
       d="m 33.119,55.643 -16.881,0 C 10.042,55.643 5,60.685 5,66.881 L 5,83.762 C 5,89.958 10.042,95 16.238,95 l 16.881,0 c 6.196,0 11.238,-5.042 11.238,-11.238 l 0,-16.881 c 0,-6.196 -5.042,-11.238 -11.238,-11.238 z m 8.054,28.119 c 0,4.441 -3.613,8.055 -8.054,8.055 l -16.881,0 c -4.441,0 -8.055,-3.613 -8.055,-8.055 l 0,-16.881 c 0,-4.442 3.613,-8.054 8.055,-8.054 l 16.881,0 c 4.44,0 8.054,3.611 8.054,8.054 l 0,16.881 z"
       id="path10"
       style="color:#000000;clip-rule:nonzero;display:inline;overflow:visible;visibility:visible;isolation:auto;mix-blend-mode:normal;color-interpolation:sRGB;color-interpolation-filters:linearRGB;solid-color:#000000;solid-opacity:1;fill:#bebebe;fill-opacity:1;fill-rule:nonzero;stroke-width:6.42857122;stroke-linecap:butt;stroke-linejoin:miter;stroke-miterlimit:4;stroke-dasharray:none;stroke-dashoffset:0;stroke-opacity:1;color-rendering:auto;image-rendering:auto;shape-rendering:auto;text-rendering:auto;enable-background:accumulate" />
    <path
       inkscape:connector-curvature="0"
       d="m 83.762,55.643 -16.881,0 c -6.196,0 -11.238,5.042 -11.238,11.238 l 0,16.881 C 55.643,89.958 60.685,95 66.881,95 l 16.881,0 C 89.958,95 95,89.958 95,83.762 L 95,66.881 C 95,60.685 89.958,55.643 83.762,55.643 Z m 8.054,28.119 c 0,4.441 -3.612,8.055 -8.055,8.055 l -16.88,0 c -4.441,0 -8.054,-3.613 -8.054,-8.055 l 0,-16.881 c 0,-4.442 3.612,-8.054 8.054,-8.054 l 16.881,0 c 4.442,0 8.055,3.611 8.055,8.054 l 0,16.881 z"
       id="path12"
       style="color:#000000;clip-rule:nonzero;display:inline;overflow:visible;visibility:visible;isolation:auto;mix-blend-mode:normal;color-interpolation:sRGB;color-interpolation-filters:linearRGB;solid-color:#000000;solid-opacity:1;fill:#bebebe;fill-opacity:1;fill-rule:nonzero;stroke-width:6.42857122;stroke-linecap:butt;stroke-linejoin:miter;stroke-miterlimit:4;stroke-dasharray:none;stroke-dashoffset:0;stroke-opacity:1;color-rendering:auto;image-rendering:auto;shape-rendering:auto;text-rendering:auto;enable-background:accumulate" />
  </g>
</svg>
