<?xml version="1.0" encoding="UTF-8" standalone="no"?>
<!-- Created with Inkscape (http://www.inkscape.org/) -->

<svg
   xmlns:dc="http://purl.org/dc/elements/1.1/"
   xmlns:cc="http://creativecommons.org/ns#"
   xmlns:rdf="http://www.w3.org/1999/02/22-rdf-syntax-ns#"
   xmlns:svg="http://www.w3.org/2000/svg"
   xmlns="http://www.w3.org/2000/svg"
   xmlns:sodipodi="http://sodipodi.sourceforge.net/DTD/sodipodi-0.dtd"
   xmlns:inkscape="http://www.inkscape.org/namespaces/inkscape"
   id="svg7384"
   height="16"
   width="16"
   version="1.1"
   inkscape:version="0.91 r13725"
   sodipodi:docname="force-quit-symbolic.svg">
  <defs
     id="defs14" />
  <sodipodi:namedview
     pagecolor="#ffffff"
     bordercolor="#666666"
     borderopacity="1"
     objecttolerance="10"
     gridtolerance="10"
     guidetolerance="10"
     inkscape:pageopacity="0"
     inkscape:pageshadow="2"
     inkscape:window-width="1526"
     inkscape:window-height="822"
     id="namedview12"
     showgrid="false"
     inkscape:zoom="15.999999"
     inkscape:cx="19.528957"
     inkscape:cy="14.096801"
     inkscape:window-x="74"
     inkscape:window-y="34"
     inkscape:window-maximized="1"
     inkscape:current-layer="g4" />
  <metadata
     id="metadata90">
    <rdf:RDF>
      <cc:Work
         rdf:about="">
        <dc:format>image/svg+xml</dc:format>
        <dc:type
           rdf:resource="http://purl.org/dc/dcmitype/StillImage" />
        <dc:title>Gnome Symbolic Icon Theme</dc:title>
      </cc:Work>
    </rdf:RDF>
  </metadata>
  <title
     id="title9167">Gnome Symbolic Icon Theme</title>
  <g
     transform="matrix(0.17777778,0,0,0.21728797,-0.888889,-2.8645071)"
     id="g4">
    <path
       style="fill:#000000"
       inkscape:connector-curvature="0"
       d="m 69.156102,44.38 c -1.971297,-1.597 -5.169563,-1.597 -7.14086,0 l -9.89475,8.017 -9.895984,-8.017 c -1.971297,-1.597 -5.169563,-1.597 -7.14086,0 -1.972531,1.598 -1.972531,4.188 0,5.786 l 9.89475,8.017 -9.89475,8.015 c -1.972531,1.598 -1.972531,4.188 0,5.786 1.971297,1.597 5.169563,1.597 7.14086,0 l 9.895984,-8.017 9.89475,8.017 c 1.971297,1.597 5.169563,1.597 7.14086,0 1.972531,-1.598 1.972531,-4.188 0,-5.786 l -9.89475,-8.015 9.89475,-8.017 c 1.971297,-1.598 1.971297,-4.188 0,-5.786 z"
       id="path6" />
    <path
       style="fill:#000000"
       d="M 2.7519531,0 C 1.2314198,2.1728797e-4 3.5555556e-4,1.5065531 0,3.3652344 L 0,12.634766 C 3.5555556e-4,14.49323 1.231242,15.999348 2.7519531,16 L 13.248047,16 C 14.768758,15.999348 15.999467,14.49323 16,12.634766 l 0,-8.1894535 0,-0.00195 0,-1.078125 C 15.999644,1.5063327 14.76858,4.3457594e-4 13.248047,0 Z M 11.71875,2.1875 c 0.362437,0 0.65625,0.2938131 0.65625,0.65625 C 12.375,3.2061869 12.081187,3.5 11.71875,3.5 11.356313,3.5 11.0625,3.2061869 11.0625,2.84375 c 0,-0.3624369 0.293813,-0.65625 0.65625,-0.65625 z m 2,0 c 0.362437,0 0.65625,0.2938131 0.65625,0.65625 C 14.375,3.2061869 14.081187,3.5 13.71875,3.5 13.356313,3.5 13.0625,3.2061869 13.0625,2.84375 c 0,-0.3624369 0.293813,-0.65625 0.65625,-0.65625 z m -12.2636719,3.1464844 13.0898439,0 0,7.3007816 c -0.0012,0.876105 -0.580075,1.586152 -1.296875,1.58789 l -10.4960939,0 c -0.7168,-0.0017 -1.2954528,-0.711785 -1.296875,-1.58789 z"
       transform="matrix(5.6249999,0,0,4.6021876,5.0000006,13.182999)"
       id="path8"
       inkscape:connector-curvature="0"
       sodipodi:nodetypes="cccccccccccssssssssssccccccc" />
    <ellipse
       style="color:#000000;clip-rule:nonzero;display:inline;overflow:visible;visibility:visible;opacity:0.5;isolation:auto;mix-blend-mode:normal;color-interpolation:sRGB;color-interpolation-filters:linearRGB;solid-color:#000000;solid-opacity:1;fill:#000000;fill-opacity:1;fill-rule:nonzero;stroke:none;stroke-width:5.08795685;stroke-linecap:butt;stroke-linejoin:miter;stroke-miterlimit:4;stroke-dasharray:none;stroke-dashoffset:0;stroke-opacity:1;marker:none;color-rendering:auto;image-rendering:auto;shape-rendering:auto;text-rendering:auto;enable-background:accumulate;filter-blend-mode:normal;filter-gaussianBlur-deviation:0"
       id="path4145"
       cx="82.167976"
       cy="26.270466"
       rx="3.6914065"
       ry="3.0201859" />
    <ellipse
       ry="3.0201859"
       rx="3.6914065"
       cy="26.270466"
       cx="70.917976"
       id="ellipse4147"
       style="color:#000000;clip-rule:nonzero;display:inline;overflow:visible;visibility:visible;opacity:0.5;isolation:auto;mix-blend-mode:normal;color-interpolation:sRGB;color-interpolation-filters:linearRGB;solid-color:#000000;solid-opacity:1;fill:#000000;fill-opacity:1;fill-rule:nonzero;stroke:none;stroke-width:5.08795685;stroke-linecap:butt;stroke-linejoin:miter;stroke-miterlimit:4;stroke-dasharray:none;stroke-dashoffset:0;stroke-opacity:1;marker:none;color-rendering:auto;image-rendering:auto;shape-rendering:auto;text-rendering:auto;enable-background:accumulate;filter-blend-mode:normal;filter-gaussianBlur-deviation:0" />
  </g>
</svg>
