<?xml version="1.0" encoding="UTF-8" standalone="no"?>
<!-- Created with Inkscape (http://www.inkscape.org/) -->

<svg
   xmlns:dc="http://purl.org/dc/elements/1.1/"
   xmlns:cc="http://creativecommons.org/ns#"
   xmlns:rdf="http://www.w3.org/1999/02/22-rdf-syntax-ns#"
   xmlns:svg="http://www.w3.org/2000/svg"
   xmlns="http://www.w3.org/2000/svg"
   xmlns:sodipodi="http://sodipodi.sourceforge.net/DTD/sodipodi-0.dtd"
   xmlns:inkscape="http://www.inkscape.org/namespaces/inkscape"
   width="128mm"
   height="128mm"
   viewBox="0 0 128 128"
   version="1.1"
   id="svg8"
   inkscape:version="0.92.2 (unknown)"
   sodipodi:docname="button-current.svg">
  <defs
     id="defs2">
    <clipPath
       id="clipPath1260-8"
       clipPathUnits="userSpaceOnUse">
      <path
         inkscape:connector-curvature="0"
         id="path1258-8"
         d="M 0,14400 H 14400 V 0 H 0 Z" />
    </clipPath>
  </defs>
  <sodipodi:namedview
     id="base"
     pagecolor="#ffffff"
     bordercolor="#666666"
     borderopacity="1.0"
     inkscape:pageopacity="0.0"
     inkscape:pageshadow="2"
     inkscape:zoom="0.1767767"
     inkscape:cx="769.28804"
     inkscape:cy="929.24706"
     inkscape:document-units="mm"
     inkscape:current-layer="svg8"
     showgrid="false"
     inkscape:window-width="1842"
     inkscape:window-height="1001"
     inkscape:window-x="78"
     inkscape:window-y="1114"
     inkscape:window-maximized="1"
     inkscape:pagecheckerboard="true"
     showguides="false" />
  <metadata
     id="metadata5">
    <rdf:RDF>
      <cc:Work
         rdf:about="">
        <dc:format>image/svg+xml</dc:format>
        <dc:type
           rdf:resource="http://purl.org/dc/dcmitype/StillImage" />
        <dc:title />
      </cc:Work>
    </rdf:RDF>
  </metadata>
  <circle
     cy="65"
     cx="65"
     id="circle819"
     style="color:#000000;clip-rule:nonzero;display:inline;overflow:visible;visibility:visible;opacity:1;isolation:auto;mix-blend-mode:normal;color-interpolation:sRGB;color-interpolation-filters:linearRGB;solid-color:#000000;solid-opacity:1;vector-effect:none;fill:#b9b9b9;fill-opacity:1;fill-rule:evenodd;stroke:none;stroke-width:1.23496723;stroke-linecap:butt;stroke-linejoin:miter;stroke-miterlimit:4;stroke-dasharray:none;stroke-dashoffset:0;stroke-opacity:1;marker:none;color-rendering:auto;image-rendering:auto;shape-rendering:auto;text-rendering:auto;enable-background:accumulate"
     r="59" />
  <circle
     style="color:#000000;clip-rule:nonzero;display:inline;overflow:visible;visibility:visible;opacity:1;isolation:auto;mix-blend-mode:normal;color-interpolation:sRGB;color-interpolation-filters:linearRGB;solid-color:#000000;solid-opacity:1;vector-effect:none;fill:#ffffff;fill-opacity:1;fill-rule:evenodd;stroke:none;stroke-width:1.23500001;stroke-linecap:butt;stroke-linejoin:miter;stroke-miterlimit:4;stroke-dasharray:none;stroke-dashoffset:0;stroke-opacity:1;marker:none;color-rendering:auto;image-rendering:auto;shape-rendering:auto;text-rendering:auto;enable-background:accumulate"
     id="path263064"
     cx="64"
     cy="64"
     r="59" />
  <g
     id="g263062"
     transform="matrix(5.6791824,0,0,5.6791785,-5336.7424,-1145.0781)"
     style="opacity:0.35;stroke-width:0.17608175">
    <g
       transform="matrix(0.35277777,0,0,-0.35277777,961.26745,212.89665)"
       id="g261200"
       style="stroke-width:0.17608175">
      <path
         inkscape:connector-curvature="0"
         id="path261202"
         style="fill:#e3e3e3;fill-opacity:1;fill-rule:nonzero;stroke:none;stroke-width:0.17608175"
         d="m 0,0 c 0,-16.119 -13.066,-29.185 -29.184,-29.185 -16.117,0 -29.185,13.066 -29.185,29.185 0,16.118 13.068,29.185 29.185,29.185 C -13.066,29.185 0,16.118 0,0" />
    </g>
    <g
       transform="matrix(0.35277777,0,0,-0.35277777,961.26745,212.89665)"
       id="g261204"
       style="stroke-width:0.17608175">
      <path
         inkscape:connector-curvature="0"
         id="path261206"
         style="fill:none;stroke:#b1b3b5;stroke-width:0.52824521;stroke-linecap:round;stroke-linejoin:round;stroke-miterlimit:4;stroke-dasharray:none;stroke-opacity:1"
         d="m 0,0 c 0,-16.119 -13.066,-29.185 -29.184,-29.185 -16.117,0 -29.185,13.066 -29.185,29.185 0,16.118 13.068,29.185 29.185,29.185 C -13.066,29.185 0,16.118 0,0 Z" />
    </g>
    <g
       transform="matrix(0.35277777,0,0,-0.35277777,942.76316,215.50664)"
       id="g261208"
       style="stroke-width:0.17608175">
      <path
         inkscape:connector-curvature="0"
         id="path261210"
         style="fill:#ffffff;fill-opacity:1;fill-rule:nonzero;stroke:none;stroke-width:0.17608175"
         d="m 0,0 c 0,14.437 11.447,26.142 25.568,26.142 10.164,0 18.922,-6.083 23.039,-14.871 -2.281,12.047 -12.64,21.15 -25.087,21.15 -14.118,0 -25.567,-11.704 -25.567,-26.14 0,-4.041 0.924,-7.853 2.526,-11.27 C 0.174,-3.371 0,-1.707 0,0" />
    </g>
    <g
       transform="matrix(0.35277777,0,0,-0.35277777,959.54286,210.03344)"
       id="g261228"
       style="stroke-width:0.17608175">
      <path
         inkscape:connector-curvature="0"
         id="path261230"
         style="fill:#cfcfcf;fill-opacity:1;fill-rule:nonzero;stroke:none;stroke-width:0.17608175"
         d="m 0,0 c 0,-15.081 -11.959,-27.306 -26.713,-27.306 -10.621,0 -19.766,6.354 -24.068,15.53 2.383,-12.581 13.205,-22.092 26.211,-22.092 14.75,0 26.707,12.226 26.707,27.306 C 2.137,-2.34 1.174,1.644 -0.5,5.215 -0.18,3.524 0,1.785 0,0" />
    </g>
  </g>
  <path
     sodipodi:type="star"
     style="color:#000000;clip-rule:nonzero;display:inline;overflow:visible;visibility:visible;opacity:0.75;isolation:auto;mix-blend-mode:normal;color-interpolation:sRGB;color-interpolation-filters:linearRGB;solid-color:#000000;solid-opacity:1;vector-effect:none;fill:#ff2a2a;fill-opacity:1;fill-rule:evenodd;stroke:none;stroke-width:2.90987682;stroke-linecap:butt;stroke-linejoin:miter;stroke-miterlimit:4;stroke-dasharray:none;stroke-dashoffset:0;stroke-opacity:1;marker:none;color-rendering:auto;image-rendering:auto;shape-rendering:auto;text-rendering:auto;enable-background:accumulate"
     id="path13832"
     sodipodi:sides="3"
     sodipodi:cx="155.575"
     sodipodi:cy="217.09584"
     sodipodi:r1="19.60775"
     sodipodi:r2="9.803875"
     sodipodi:arg1="0"
     sodipodi:arg2="1.0471976"
     inkscape:flatsided="true"
     inkscape:rounded="0"
     inkscape:randomized="0"
     d="m 175.18275,217.09584 -29.41163,16.98081 v -33.96162 z"
     inkscape:transform-center-x="-1.8741218"
     transform="matrix(0.38232269,0,0,0.47112006,52.733274,-21.773256)" />
  <g
     id="g1254"
     transform="matrix(0.35277777,0,0,-0.35277777,-2642.5786,2897.4914)">
    <g
       id="g1256"
       clip-path="url(#clipPath1260-8)"
       transform="translate(-6.7459296,37.584465)" />
  </g>
</svg>
